<?xml version="1.0" encoding="UTF-8" standalone="no"?>
<!-- Generator: Adobe Illustrator 13.0.2, SVG Export Plug-In . SVG Version: 6.00 Build 14948)  -->

<svg
   xmlns:dc="http://purl.org/dc/elements/1.1/"
   xmlns:cc="http://creativecommons.org/ns#"
   xmlns:rdf="http://www.w3.org/1999/02/22-rdf-syntax-ns#"
   xmlns:svg="http://www.w3.org/2000/svg"
   xmlns="http://www.w3.org/2000/svg"
   xmlns:sodipodi="http://sodipodi.sourceforge.net/DTD/sodipodi-0.dtd"
   xmlns:inkscape="http://www.inkscape.org/namespaces/inkscape"
   version="1.1"
   id="Layer_1"
   x="0px"
   y="0px"
   width="24"
   height="24"
   viewBox="0 0 24 24"
   enable-background="new 0 0 384 384.017"
   xml:space="preserve"
   inkscape:version="0.91 r13725"
   sodipodi:docname="cc_public_domain.svg"><metadata
     id="metadata9"><rdf:RDF><cc:Work
         rdf:about=""><dc:format>image/svg+xml</dc:format><dc:type
           rdf:resource="http://purl.org/dc/dcmitype/StillImage" /><dc:title></dc:title></cc:Work></rdf:RDF></metadata><defs
     id="defs7" /><sodipodi:namedview
     pagecolor="#ffffff"
     bordercolor="#666666"
     borderopacity="1"
     objecttolerance="10"
     gridtolerance="10"
     guidetolerance="10"
     inkscape:pageopacity="0"
     inkscape:pageshadow="2"
     inkscape:window-width="1769"
     inkscape:window-height="842"
     id="namedview5"
     showgrid="false"
     inkscape:zoom="4.916449"
     inkscape:cx="37.971137"
     inkscape:cy="-5.3036758"
     inkscape:window-x="166"
     inkscape:window-y="177"
     inkscape:window-maximized="0"
     inkscape:current-layer="Layer_1" /><path
     d="m 12,2e-6 c -6.62725,0 -12,5.37275 -12,12 0,6.6265 5.37275,12 12,12 6.62725,0 12,-5.3735 12,-12 0,-6.6273125 -5.37275,-12 -12,-12 z m 0,21.749875 c -5.3764375,0 -9.75025,-4.374187 -9.75025,-9.749875 0,-1.125438 0.1939375,-2.2061876 0.546625,-3.212125 l 3.8133125,1.698062 c -0.1026875,0.510313 -0.158375,1.042625 -0.158375,1.592438 0,4.790625 3.5757505,6.140438 5.8255005,6.140438 1.326687,0 2.474874,-0.42825 3.373687,-1.0565 0.170813,-0.122438 0.325563,-0.245625 0.46775,-0.371 l -1.749375,-2.125563 c -0.05131,0.05863 -0.104875,0.114375 -0.159812,0.16425 -0.680438,0.645187 -1.428313,0.645187 -1.595438,0.645187 -1.830375,0 -2.596563,-1.931187 -2.606813,-3.478187 l 10.509813,4.679188 c 0.01244,0.0022 0.02269,0.0022 0.03294,0.0044 -1.658375,3.019312 -4.868937,5.069312 -8.549562,5.069312 z M 21.39575,14.491314 10.556,9.6530644 c 0.391125,-0.7082499 1.013625,-1.2405624 1.945125,-1.2405624 0.54,0 0.968187,0.178875 1.305437,0.40475 0.14,0.1011875 0.26175,0.2023125 0.364375,0.30425 l 1.953938,-2.011125 c -1.312375,-1.128375 -2.804438,-1.33 -3.78025,-1.33 -2.293,0 -3.9155625,0.99125 -4.872,2.4965 L 3.84775,6.6601895 C 5.592375,4.0060645 8.594375,2.249377 12,2.249377 c 5.376375,0 9.750625,4.3735 9.750625,9.750625 0,0.870312 -0.116563,1.712687 -0.331438,2.516312 -0.0088,-0.0088 -0.01463,-0.01619 -0.02344,-0.025 z"
     id="path3"
     inkscape:connector-curvature="0" /></svg>