<svg width="512" height="512" viewBox="0 0 512 512"><g transform="matrix(21.234241,0,0,21.234241,31.830118,-167.49571)"><path d="M10.546 7.8880005L20.629 13.692c-3.368988 1.884647 0 0-10.061 5.713469C.504 13.692 3.843735 15.614138.504 13.692zM11.047 20.378419C14.399197 18.427308 17.757695 16.487034 21.114 14.543L21.077 26.166 11.052 31.972C11.0509 28.107473 11.047 24.242946 11.047 20.378419zM0 14.57L.037 26.193 10.063 32C10.0641 28.12614 10.068 24.25228 10.068 20.378419 6.694251 18.473417 3.352666 16.5118 0 14.57z"/></g></svg>