<?xml version="1.0" encoding="iso-8859-1"?>
<!DOCTYPE svg PUBLIC "-//W3C//DTD SVG 1.1//EN" "http://www.w3.org/Graphics/SVG/1.1/DTD/svg11.dtd">
<svg 
 version="1.1" xmlns="http://www.w3.org/2000/svg" xmlns:xlink="http://www.w3.org/1999/xlink" x="0px" y="0px" width="512px"
	 height="512px" viewBox="0 0 512 512" style="enable-background:new 0 0 512 512;" xml:space="preserve"
><g id="afcae5a789ccd549f9c6e2a2f80fd1d2"><g></g><path style="display: inline;" d="M256,0.5C114.893,0.5,0.5,114.893,0.5,256c0,141.106,114.393,255.5,255.5,255.5
		c141.112,0,255.5-114.394,255.5-255.5C511.5,114.893,397.112,0.5,256,0.5z M326.832,58.713c-0.212,0.082-0.395,0.121-0.527,0.189
		c0.465,0.135,0.927,0.15,1.259,0.27c-0.989-0.208,2.3,0.256,2.666,0.316c-2.129-1.823,2.309-0.665,2.321-0.565
		c0.016,0.114-0.125,0.206-0.104,0.32c0.977-0.131,2.308,0.016,3.613,0.293c-0.224-0.121-0.415-0.256-0.516-0.429
		c0.823,0.025,1.639,0.017,2.453-0.031c-0.22-0.008-2.478-0.114-2.582-0.118c-0.436-0.015-2.349,0.083-2.693-0.607
		c0.603,0,1.205,0.029,1.809,0.083c-0.01-0.02-0.01-0.047-0.01-0.075c0.296,0.01,0.592,0.013,0.895,0.021
		c-0.1-0.052-0.203-0.104-0.295-0.156c3.664,0.064,9.349-0.74,12.7,0.927c-1.21,0.206-6.862,1.144-10.089,0.809
		c0.508,0.156,0.99,0.318,1.397,0.495c-0.175,0.011-0.399,0-0.574-0.006c1.668,0.21,3.813,0.468,5.527,1.333
		c-1.63,0.108-2.233,0.451-3.714,0.543c-0.149-0.191-0.174-0.299-0.017-0.401c-0.724-0.085-1.938-0.133-2.695-0.2
		c0.051-0.375,0.695-0.239,0.758-0.541c-0.362-0.059-0.815-0.35-1.106-0.535c-2.362,0.514-9.486,3.057-9.668,0.451
		c1.185,0,2.22,0.108,3.422,0.056c-0.453-0.135-4.046-0.01-4.08-0.545c0,0.048,2.038-0.287,3.194-0.451
		c-1.406,0.052-4.055,0.304-4.712-0.187c0.138-0.015,0.225-0.027,0.357-0.021c-0.773-0.183-1.446-0.339-1.285-0.585
		c-0.498-0.087-0.989-0.243-1.45-0.465C324.313,58.52,325.563,58.458,326.832,58.713z M323.152,59.463
		c0.032-0.006,0.046-0.012,0.078-0.016c0,0.016,0,0.031,0.005,0.045C323.202,59.484,323.177,59.474,323.152,59.463
		c0.552,0.269,1.144,0.366,1.472,0.738C323.767,60.082,322.52,59.588,323.152,59.463z M330.796,89.934
		c1.438,0.116,6.657,0.391,5.36-1.826c-2.87-4.916-2.816-4.898,2.395-6.955c0.233,1.518,1.04,2.065,1.376,2.724
		c0.072,0.01,0.129,0.114,0.167,0.36c-0.021-0.129-0.101-0.244-0.167-0.36c-0.195-0.025-0.502,0.9-0.76,1.94
		c1.006,0.158,1.638,0.533,1.442,1.809c-0.137-0.894-1.102-0.536-1.692-0.76c-0.254,1.164-0.378,2.087-0.154,1.459
		c2.645,0.225,5.822,0.033,8.508,0.495c-0.457,3.085,9.628-0.445,12.102,0.449c-0.125,0.22-0.232,0.499-0.207,0.611
		c1.006,0.041,2.004,0.079,3.011,0.121c-0.782-5.408,9.048-7.604,9.078-6.138c-0.03-1.304-4.351-2.924-3.132-3.556
		c3.772-1.952,8.159,0.971,12.186-0.528c-1.507-1.651-20.674-1.137-17.8-4.694c-1.621-0.462-1.43-1.583-2.224-2.583
		c0.656,0.05,8.578-2.803,8.458-3.125c-1.543-3.826-7.772-0.482-8.524,0.556c0.586,1.77-8.155,0.998-7.719,3.703
		c0.453,2.817,3.926,2.014,4.578,4.574c0.113,0.447-8.525,4.034-3.069,4.988c0.101,2.133-6.458,3.726-7.93,3.609
		c-1.261-0.142-3.888-5.215-4.517-6.163c-1.655-2.441-2.383-4.271-5.227-2.545c-0.937,0.565-9.096,2.678-9.382-0.278
		c-0.083-0.841,1.388,0.033,1.239-1.314c-1.131-0.083-1.131-0.083-2.088,0.079c0.291-0.479,0.686-0.844,1.185-1.098
		c-5.738-3.975,5.241-6.096,7.747-5.795c-0.872-0.17-1.192-0.266-1.908-0.391c1.618-0.087,14.352-5.248,14.797-6.593
		c-1.769,0.029-2.4,0.341-4.146,0.239c0.312-0.169,1.068-0.26,1.352-0.293c-0.365-0.021-1.114-0.144-1.114-0.144
		c0.179-0.75,5.863-0.23,6.021-0.251c-0.523-0.083-0.532-0.104-1.168-0.123c0.952-0.313,1.926-0.407,2.916-0.282
		c-0.4-0.144-0.324-0.115-0.65-0.233c2.671-0.887,5.873-0.01,8.697-0.422c-2.03-0.354,4.885-1.601,4.282,0.427
		c13.578,1.166,29.888,17.969,39.914,27.198c15.312,14.089,28.606,30.345,39.364,48.152c-0.246,0-0.474,0.045-0.695,0.141
		c7.361,10.658,13.063,22.598,17.766,34.919c-2.652-3.726-11.59-9.273-7.314-0.561c2.129,4.283,7.298,6.458,8.833,10.679
		c1.056-0.179,0.481-1.588,1.372-1.688c1.064,2.146-0.295,4.596,2.101,6.113c3.063,10.118,5.426,20.535,7.011,31.214
		c-9.194,2.595-16.76,11.797-22.526,0.516c-3.065-5.996-4.591-10.134-8.75-15.74c-3.09-4.171-7.44-7.381-8.637-12.713
		c-2.009-8.819-16.46-14.122-16.884-23.786c-0.059-1.447-3.689-8.271-3.355-8.525c0.906-0.703,0.572-4.325,0.641-5.398
		c0.22-3.668,1.025-6.479,0.066-10.126c-7.84,2.116-14.381-1.094-22.344-1.884c0.27-0.066,0.603-0.299,0.66-0.465
		c-2.346-2.038-3.909-3.664-6.711-5.086c3.068-3.14-0.01-1.851-0.449-3.818c-0.6-2.752,6.661-1.526,7.926-2.017
		c-0.146-0.274-1.023-0.786-1.003-1.181c-2.868-0.403-2.457,2.537-5.617,0.292c-2.43-1.73-2.762-0.715-5.074-0.283
		c0.337,0.699,0.438,1.207,0.391,1.872c-0.046-0.004-3.934-2.708-3.534-0.699c2.35,2.263,3.647,4.475,6.351,6.742
		c-1.602,0.828-3.103-0.071-4.438-1.248c0.125,0.583,0.898,4.105,1.422,4.383c-3.168-0.35-5.132-1.909-3.788-4.62
		c-2.45-0.266-7.715-5.447-8.196-8.06c-0.794-4.433-6.978-5.086-7.481-7.984c-1.094-0.108-13.861-8.94-13.486-6.337
		c0.565,4.067,7.182,9.697,11.378,10.109c0.599,3.331,7.003,2.499,7.086,6.217c-6.034-1.597-3.714-2.138-2.978,2.258
		c-0.082-0.528-3.48,4.729-3.913,2.042c6.321,0.615-13.96-15.245-13.129-13.424c-4.474-4.674-5.265-6.383-11.173-3.385
		c-2.891,1.468-12.472-3.618-9.964,2.803c-0.146,0.516-13.403,6.192-7.61,8.712c-1.752,2.471-4.487,4.471-6.945,5.436
		c-2.906-1.106-8.338,3.031-10.068,0.345c-2.195-3.418-3.529-2.121-7.048-2.374c-3.593-0.267-0.445-12.218-0.445-13.84
		c0-2.263-1.879-5.285,2.778-4.945c3.963,0.313,7.843,1.365,11.843,1.676c4.458-0.583,6.185,1.04,5.868-5.14
		c-0.055,0.033-0.111,0.066-0.18,0.1c2.691-4.471-9.539-5.776-9.539-8.093c-0.021-1.597,7.111-0.167,7.984-0.287
		c-0.033-0.836-0.498-1.468-0.54-2.391c5.672,0.449,6.483-1.659,11.386-2.715C326.458,93.859,325.918,89.539,330.796,89.934z
		 M344.793,86.091c-1.638,0.174-0.961,3.313-3.505,1.588c0.244-0.333,0.432-0.337,0.59-0.008c0.582,0,1.11-0.345,1.068-0.632
		C339.191,86.249,342.839,82.789,344.793,86.091z M358.737,132.758c-0.195,0.832-0.25,4.025-0.342,4.017
		c-1.26-0.125-6.974-3.289-7.141-4.404C352.266,132.001,357.526,132.434,358.737,132.758z M306.825,77.304
		c-0.665,0.432-1.368,0.803-2.096,1.12c0.856,1.668,2.574,1.916,5.169,0.747c0.333,1.368-2.582,2.528-2.923,3.341
		c3.389,0.88,8.574,4.327,8.712,7.72c0.61-0.079,0.694-0.25,1.035-0.34c1.964-0.923,1.964,1.256-0.079,3.605
		c0.599,0.129,1.197,0.262,1.793,0.387c0.032,0.698-14.979,2.045-16.756,1.946c1.045-1.763,5.96-2.566,5.932-3.584
		c-0.654,0.653-5.395-0.212-5.395-0.52c0-1.136,1.755-1.385,1.755-3.494c1.422,0.1,3.918,0.141,3.892-1.688
		c-1.359-0.005-2.474-0.237-1.475-1.512c-0.516-0.042-4.127,0.355-4.113-0.512c0.024-1.948,2.313-1.021-0.558-2.48
		c-0.437,0.401-0.188,0.578-0.021,0.803c-0.225-0.017-0.445-0.031-0.678-0.046c0.029-1.983-0.313-1.584-0.25-3.198
		c-1.247-0.237-1.916-0.437-1.884-1.076c0.188,0.013,2.237,0.572,2.246,0.3C299.622,78.244,306.913,74.453,306.825,77.304z
		 M302.941,86.482c0-0.291,0.091-0.507,0.603-0.641c0.097,0.004,0.354,0.021,0.438,0.029c0,0.17-0.083,0.387-0.083,0.678
		C303.715,86.536,303.457,86.515,302.941,86.482z M299.789,76.979c-0.024,0.527-0.715,1.065-1.63,1.007
		C296.441,77.884,299.606,76.967,299.789,76.979z M290.886,85.883c0.063-0.996,2.883-0.648,3.531-1.01
		c-1.627-1.784,2.744-1.585,3.592-1.522c5.041,0.331,1.303,2.612,1.289,3.219c-0.104,4.059-2.885,5.353-7.376,5.053
		c-4.667-0.329,0.195-3.227,0.558-4.42C291.95,86.76,291.418,86.324,290.886,85.883z M168.289,64.021
		c0.898-0.031,1.829-0.052,2.703-0.052c-0.574,0.066-1.106-0.031-1.605-0.287c0.603-0.326,1.438-0.274,2.245-0.247
		c-0.129-0.075-0.278-0.1-0.374-0.245c1.018-0.131,2.042-0.208,3.069-0.223c-0.445-0.073-1.281-0.069-0.924-0.276
		c1.755-0.007,5.349,1.522,6.521,0.856c-0.025-0.04-0.045-0.071-0.063-0.104c1.331-0.021,1.048,0.204,0.167,0.709
		c1.734-1.002,2.195,1.246,5.061-0.73c0.162-0.112-1.331-0.653-1.892-0.731c1.368,0.017,1.672-0.098,0.86-0.345
		c-1.422-0.008-2.512-0.143-2.752-0.507c0.541-0.073,1.085-0.147,1.622-0.219c-0.77,0.025-1.539,0.05-2.313,0.073
		c1.273-0.42,2.396-0.406,3.839-0.556c-1.343-0.064-2.632,0.447-3.972,0.223c0.777-0.166,1.156-0.218,1.834-0.291
		c-1.172,0.035-2.308,0.156-3.473,0.191c6.333-2.368,24.312-3.961,30.682-1.684c-3.297,0.828,5.415-0.489,5.028,0.287
		c-0.279,0.576-5.46,0.572-5.905,0.64c0.271,0.102,1.718-0.017,2.574-0.023c-4.595,1.291-9.581,1.167-14.18,2.341
		c0.411-0.017,0.819-0.033,1.227-0.052c-0.266,0.343-0.765,0.339-1.576,0.343c0.433,0.077,0.856,0.114,0.895,0.333
		c-2.142,0.42-3.224,0.949-5.319,1.08c-0.432,1.012-2.324,0.653-3.181,1.393c0.59-0.045,2.054-0.135,1.875,0.042
		c-3.51,3.378-11.694,0.418-16.851,0.915c-0.969,0.23-1.929,0.532-2.869,0.915c0.753-0.541,1.747-0.809,2.869-0.915
		c1.036-0.25,2.088-0.425,3.161-0.503c-2.849-1.262,3.647-0.537,4.537-0.582c-1.402-1.092-3.835-0.89-5.261-0.566
		c0.029,0.167,0.188,0.191,0.117,0.331c-1.235,0.043-5.107-0.254-6.113,0.137c0.22,0.012,0.445,0.021,0.711-0.073
		c-0.25,0.056-0.503,0.114-0.898,0.149c0.038-0.031,0.129-0.052,0.188-0.077c-0.354-0.021-0.67-0.131-0.907-0.433
		c1.514-0.301,3.044-0.463,4.591-0.482c-0.653-0.041-2.898-0.274-4.35-0.234c-0.358,0.066-0.698,0.11-1.16,0.173
		c0.195-0.111,0.624-0.158,1.16-0.173c0.137-0.025,0.266-0.042,0.416-0.083C168.546,64.514,167.561,64.5,168.289,64.021z
		 M187.417,71.211c-1.389,0.667-4.283,0.582-5.738,0.632c-0.125,0.006-2.242-0.479-1.71-0.883
		C181.654,69.698,185.658,70.858,187.417,71.211z M162.924,64.352c0.682-0.04,1.41-0.045,1.763-0.061
		c-0.212,0.115-0.412,0.225-0.624,0.339C164.928,64.605,162.188,64.753,162.924,64.352z M165.473,66.365
		c0.412-0.011,0.512-0.002-0.025,0.054C165.465,66.398,165.457,66.385,165.473,66.365c-1.26,0.04-5.477,0.281-2.84-0.015
		C161.297,65.24,166.75,64.864,165.473,66.365z M167.44,66.558c-0.437,0.322-0.936,0.477-1.514,0.461
		c-0.258,0.013-2.961-0.084-2.961-0.084C164.429,66.571,165.955,66.702,167.44,66.558z M170.114,68.289
		c-0.731,0.026-1.463,0.056-2.196,0.083c-0.523,0.541,1.314,0.183,1.751,0.375c-1.165,0.32,15.174-1.115,15.34-0.073
		c-0.362,0.015-0.723,0.101-1.069,0.256c0.354,0.027,0.736-0.006,0.736-0.006c-4.104,2.57-11.748-1.137-15.354,0.936
		c-0.969,0.027-7.635-0.096-4.125-0.721c-0.221-1.119-0.861-1.356-1.925-0.722c-0.936,0.011-1.834-0.174-2.687-0.551
		C161.402,67.365,169.802,67.448,170.114,68.289z M162.167,69.309c1.681,0.896-4.578,0.722-4.674,0.722
		c0.333-0.214,1.085-0.35,1.197-0.35C159.83,69.09,160.994,68.966,162.167,69.309z M152.207,65.961
		c0.217-0.043,0.491-0.12,0.686-0.193c-0.698,0.021-0.752-0.025-0.354-0.245c1.435-0.115,5.835-0.611,6.945,0.426
		c-0.199,0.054-0.528,0.135-0.723,0.197c0.491,0.449-1.21,0.713-3.082,0.754c-0.449,0.101-0.982,0.134-1.639,0.16
		c0.312-0.01,0.728-0.098,1.156-0.151c-1.609,0-3.21-0.164-3.535-0.518c0.853,0.1,1.609-0.066,2.279-0.495
		C152.856,65.934,152.403,66.055,152.207,65.961z M148.831,67.265c1.293-0.048,0.687,0.358,1.493,0.451
		c-0.291,0.142-0.761,0.254-1.106,0.271C148.66,68.01,148.385,67.521,148.831,67.265z M148.594,68.766
		c0.004,0.017,0.012,0.033,0.021,0.05c-0.021-0.705,2.42,0.233,3.081,0.403c0.021-0.004,0.058-0.004,0.087-0.004
		c-0.195-0.087-0.354-0.191-0.383-0.28c1.069-0.641,2.059,0.368,3.248-0.364c-0.877,0.035-1.597,0.066-1.331-0.21
		c0.416-0.07,4.911-0.019,4.911-0.05c0.025,2.904-5.614,1.152-6.766,1.878c0.736-0.474,2.191-0.641,2.874-0.828
		c-0.645-0.233-1.593-0.219-2.553-0.146c0.025,0.015,0.037,0.025,0.07,0.04c-0.025,0.002-0.087-0.017-0.158-0.036
		c-1.098,0.09-2.217,0.256-2.986,0.285c0.063-0.071,0.129-0.139,0.2-0.206c-0.624,0.085-0.74-0.048-0.932-0.156L148.594,68.766z
		 M153.596,71.929c-0.973,0.43-1.983,0.746-3.027,0.958c0.732-0.064,2.695-0.678,1.281,0.308c0.179,0.014,0.819,0.031,1.073,0.068
		c-2.021,1.256-7.127,3.009-9.049,0.348c1.418-0.94,2.812,0.104,4.346-0.928C144.127,72.584,153.238,72.162,153.596,71.929z
		 M147.15,78.445c-1.014,0.254-7.984,0.25-4.341-0.301C141.399,78.404,148.303,75.946,147.15,78.445z M145.691,70.546
		c-0.511,0.024-0.545-0.017-0.986,0.022c0.807-0.385,1.501-0.514,2.391-0.655C146.889,70.463,146.422,70.671,145.691,70.546z
		 M139.299,67.172c0.794-0.443,3.439-0.281,4.898-0.297c0.329-0.04,0.648-0.063,0.974-0.119c-0.083,0.087-0.462,0.112-0.974,0.119
		c-0.249,0.031-0.499,0.073-0.749,0.094c0.154,0.062,0.271,0.151,0.283,0.293c-2.957,0.303-3.339,0.393-1.144,0.262
		c-0.636,0.412-2.553,0.663-3.622,0.709c-1.256,0.057,0.661-0.765,2.42-1.154C140.688,66.93,139.99,66.955,139.299,67.172z
		 M137.898,67.685c-0.574,0.418-1.077,0.422-1.514,0.01C136.917,67.394,137.424,67.39,137.898,67.685z M134.467,68.908
		c0.557-0.027,1.115-0.054,1.68-0.077c-0.482,0.271-0.961,0.399-1.526,0.318C134.384,69.162,134.143,69.095,134.467,68.908z
		 M133.869,68.245c0.711,0.229,0.42,0.397-0.874,0.497c-0.47,0.711-1.21,0.993-2.2,0.85
		C131.606,68.557,132.629,68.107,133.869,68.245z M129.631,70.421c0.516-0.374,0.931-0.387,1.58-0.366
		c-0.137-0.016-0.25-0.042-0.333-0.083c0.491-0.189,0.998-0.285,1.518-0.285c-0.162-0.033-0.229-0.089-0.037-0.2
		c2.499-0.269,5.11,1.48,7.805,0.435c-0.553,0.025-0.756,0.015-0.885-0.017c0.415,0.008,0.79-0.123,1.106-0.391
		c-2.163-0.042,2.445-0.882,2.907-0.902c-2.462,1.235,2.611,0.867,2.187,1.131c-3.572,2.142-9.361,0.418-13.257,1.289
		c0.025,0.786-0.569,1.031-1.834,0.694c0.533-0.336,1.169-0.542,1.834-0.694c0-0.046,0.017-0.077,0.013-0.126
		c-0.328,0.035-0.794,0.185-1.019,0.318c-1.006,0.227-2.017,0.303-3.04,0.229c0.479-0.734,1.085-1.059,1.83-0.969
		C129.876,70.463,129.739,70.442,129.631,70.421z M120.128,77.47c0.686-0.541,3.431-2.876,5.14-3.703
		c-0.104-0.006-0.187,0-0.315-0.021c0.415-0.31,0.852-0.599,1.272-0.908c0.08,0.289,0.038,0.492-0.058,0.648
		c0.429-0.023,0.648,0.229,0.482,0.951c2.753-0.71,7.19,0.858,6.72,0.879c2.607-0.146,5.265-4.24,8.799-3.004
		c-0.212-0.075-3.177,1.786-3.447,2.357c-1.297,2.732,0.225,1.069,2.138,2.565c-0.936,0.25-2.761,0.063-3.576,0.655
		c0.145-0.108,0.49,0.563,0.49,0.563c-2.528,1.179-17.466,1.69-18.152,1.013c-0.179-0.162-1.214-0.087-2-0.031
		c2.191-1.77,3.385-1.653,6.067-1.911C122.666,77.054,120.985,77.348,120.128,77.47z M117.018,79.912
		c0.662-0.019,0.628,0.176,0.503,0.831c-0.437,0.154-1.364,0.179-1.946,0.312C116.053,80.664,116.543,80.298,117.018,79.912z
		 M75.275,166.068c-5.556,3.002-9.619,5.61-12.833,11.249c-0.054-0.021-0.1-0.045-0.146-0.063
		c-0.844,1.971-17.245,29.255-9.668,30.819c10.346,2.267,10.795-12.292,22.02-10.25c-1.406,2.895-3.896,5.036-5.26,7.943
		c-0.915,1.938-1.742,2.886-2.674,3.959c-1.261,2.212-12.701,11.486-2.778,12.096c11.968,0.737,3.09,12.102,0.699,18.277
		c-2.08,5.386-6.529,23.413,3.83,18.941c4.916-2.12,5.011,5.349,5.772,8.094c-0.32,0.503-3.983,3.892-4.009,3.825
		c-0.212-1.617,1.651-7.419-0.62-8.271c-4.616-1.605-4.99,9.265-7.227,8.316c-4.4-1.809-2.254-18.704-5.564-19.828
		c-0.354,0.487-0.624,1.198-0.586,1.613c-0.275-0.095-0.557-0.195-0.832-0.29c-0.836-3.335,2.092-6.944,1.859-10.48
		c-0.229-3.219-0.732-5.904,0.166-9.115c-2.916-0.943-5.747-2.969-7.227-6.729c-0.595-1.422,0.104-8.499-1.36-8.858
		c-1.061-4.083-2.965,1.169-4.778,0.701c-2.167-0.576-2.778-7.591-4.521-7.55c5.835-31.808,18.801-62.178,37.71-88.413
		c9.286-12.892,19.973-24.769,31.813-35.373c3.896-3.485,8.583-7.602,14.484-5.585c1.015,0.354,4.075,0.106,5.776-1.316
		c-0.079-0.002-0.133,0-0.212-0.002c-0.915,0.144-3.905,0.624-3.468,0.304c0.42-0.306,1.73-0.36,3.468-0.304
		c0.174-0.031,0.299-0.047,0.282-0.042c-0.021,0.019-0.045,0.029-0.07,0.043c4.604,0.171,12.01,1.059,14.684,0.343
		c0.304-0.191,0.715-0.416,0.902-0.578c0.025-0.052,0.096-0.09,0.1-0.146c0.005,0.038-0.033,0.087-0.1,0.146
		c-0.125,0.251-0.416,0.447-0.902,0.578c-0.449,0.283-0.657,0.487,0.516,0.297c1.876-1.482,4.919-1.068,5.71-2.239
		c-0.624,0.144-1.031,0.214-1.593,0.352c0.541-0.279,1.064-0.574,1.584-0.884c0.582-0.447-2.632-0.736-2.092-1.131
		c2.042-1.522,9.39-1.674,7.648-0.356c-0.761,0.242-1.531,0.487-2.299,0.728c0.141,0.383,1.788,0.043,2.35,0.283
		c-2.408,0.696,0.502,0.133-1.09,1.434c-0.3,0.015,6.113-1.47,4.87-0.443c-1.547-0.063-2.184,0.479-1.921,1.624
		c1.817,1.703,7.115-3.059,8.438-3.416c-0.066,0.002-10.866-0.117-9.519-1.202c1.522,0.643,2.815,0.522,3.88-0.36
		c-0.395-0.162-3.701-0.23-3.697-0.23c-0.744-1.48,4.042-2.013,4.845-2.443c-1.322,0.42-3.664,0.233-5.015,0.892
		c0.242-0.015,0.486-0.025,0.732-0.035c-1.119,0.665-2.304,0.975-3.556,0.93c3.843-2.724,5.806-2.687,11.104-2.909
		c-0.819,0.435-1.68,0.597-2.558,0.898c2.52-0.5,4.774-0.514,7.273-0.376c0.179-0.035,0.249-0.042,0.116,0.007
		c-0.038-0.002-0.079-0.002-0.116-0.007c-0.932,0.191-5.215,1.31-3.867,1.31c-2.803,1.252,9.082-2.778,9.797-0.752
		c0.054,0.147-0.5,1.156-0.753,1.156c5.062,0.05,9.232,1.559,14.027,1.75c-0.05,0.115-0.1,0.233-0.149,0.354
		c0.573-0.125,1.073,0.027,1.501,0.459c-0.549,0.083-1.044,0.077-1.46,0.354c0.583-0.129,1.127-0.069,1.647,0.179
		c-0.686,0.206-0.994,0.219-1.484,0.586c0.42,0.133,6.213,2.115,6.192,2.285c-0.391,2.711-4.72,1.487-6.836,1.164
		c-0.254,0.52-0.653,0.067-0.911,0.832c1.143-0.117,1.592,1.416,3.198,1.208c-1.207,3.948-1.069,1.665-5.656,2.424
		c-0.029-0.035,5.044,2.401,2.366,3.025c-3.377,0.732-7.386-1.697-9.481-2.747c-0.861-0.428-9.802,0.568-9.461,0.117
		c1.925-2.592,7.161-1.775,9.927-2.986c-2.183-0.742,5.672-2.156,3.036-4.053c-0.054,1.716-4.283,0.519-4.205,0.451
		c1.064-0.717,2.242-1.002,3.519-0.85c-0.695-0.338-3.776-0.47-3.867-0.355c0.528-0.145,1.052-0.289,1.571-0.434
		c-0.362-0.354-0.752-0.521-1.147-0.578c-0.724,0.016-1.373,0.225-1.917,0.663c0.678-0.563,1.314-0.757,1.917-0.663
		c0.05-0.005,0.096-0.025,0.153-0.025c-1.331-0.732-6.271,0.562-5.248-0.22c-0.74-0.008-2.063,0.031-3.563,0.087
		c1.069,0.098,2.287,0.594,3.348,0.553c-2.025,1.742-6.059,3.705-10.288,4.895c0.886-0.175,0.486,0.211,0.595,0.48
		c-0.761,0-0.978-0.232-0.69-0.455c-0.703,0.195-1.414,0.395-2.121,0.545c-0.016,0.202,0.021,0.351-0.016,0.569
		c0.69-0.299,3.646,0.102,3.942,0.871c0.075,0.225-0.383,0.476-0.2,0.605c0.607,0.383,1.963,0.158,2.129,0.553
		c-3.032,0.857-8.084,1.389-11.112,1.531c-0.765,0.033-0.195-0.341,0.316-0.707c-0.857-0.1-2.167,0.058-2.715,0.121
		c1.006-0.853,3.78-2.412,5.83-3.267c-2.308,0.314-4.512,0.327-6.292-0.229c-0.229,0.951,2.038,0.688,3.838,0.869
		c-2.532,2.21-9.003,2.914-12.85,2.564c0.333,0.12,0.645,0.291,0.923,0.553c-3.352,3.04-11.44,5.518-15.64,8.354
		c3.26-0.536,2.906,0.757,0.777,2.944c7.765-0.341,6.999,4.225,13.257,4.013c2.1,1.494-0.964,3.39-1.223,4.546
		c0.815-0.191,2.18-0.167,1.539,0.641c-0.503,0.037-0.998-0.08-1.48-0.267c0.246,0.441,1.285,0.703,3.947,0.648
		c3.056-3.385-0.454-4.674,5.506-7.053c7.397-2.948,2.004-2.956,1.85-6.803c8.018-1.817,4.757-8.908,15.457-3.78
		c3.053,1.463,12.268,4.121,14.522-0.033c-1.389,2.474-0.458,2.74,0.769,3.139c-0.482-0.246-0.911-0.549-1.26-0.99
		c2.732-3.68,8.617,4.213,3.917,5.714c0.756,0.474,1.405,1.156,3.256,1.127l-0.1,0.154c-1.556,2.574,6.275,1.896,5.602,2.698
		c-1.09,1.031-6.184,1.489-8.251,2.121c0.167,1.094,9.166-1.268,9.98-1.51c2.741,9.278-24.852,8.33-30.577,12.908
		c0.698-0.066,14.575-3.231,13.465-1.272c-0.94,1.671-3.56,1.268-4.969,2.158c0.798,0.004,1.667,0.211,2.112,0.211
		c-4.953,6.105,6.164,5.394,5.656,6.446c-0.906,1.809-10.446,3.297-12.592,4.424c-3.564,1.863,0.158-4.109,4.874-4.341
		c-1.244,0.183-1.505-0.191-0.798-1.123c-3.555,0.113-9.432,4.15-12.268,3.543c-2.986-0.636-11.989,6.845-7.02,6.729
		c-3.077,1.132-7.606,0.923-10.933,2.371c0.661,0.008,2.574-0.47,3.057,0.083c-1.9,0.491-10.205,3.514-9.715,4.69
		c-1.488,0.894-2.025,5.789-4.974,5.722c0.179,0.004,1.165-4.184,1.294-4.508c-0.628,0.624-3.182,4.945-2.94,5.66
		c0.187,0.004,0.437,0.025,0.615,0.025c-0.391,1.052-1.168,1.726-2.333,2.017c-0.021,0.687,0.353,0.782,0.744,0.898
		c-0.877,1.189-3.202,0.657-1.672,2.387c-1.992,1.56-4.545,1.904-6.629,3.281c0.038,0.066,0.083,0.129,0.129,0.195
		c-8.379,3.668-15.939,7.224-17.025,17.291c-0.27,2.541-3.264,13.84-7.036,13.337c-3.397-0.462,3.011-16.709,2.6-18.085
		c-0.059-0.191-9.474-1.693-8.962-2.591c-1.447,0.32-2.894-0.004-4.503,0.524c0.541,0.374,0.396,0.362,1.027,0.079
		c-1.011,1.568-2.225,2.471-1.834,3.402C81.579,169.673,79.004,164.055,75.275,166.068z M196.625,116.053
		c-0.807,1.468-0.599,0.703-1.164,2.179c0.989,0.021,0.752-0.129,1.455-0.416c-1.976,5.115-1.763,2.233-3.681,0.232
		c0.042-0.029-4.47,2.358-4.262,1.884c0.433-0.516,0.957-0.898,1.584-1.14c-1.131-0.012-11.145-0.757-11.104-0.844
		c0.479-0.977,2.038-0.661,2.521-1.709c-0.279,0-0.587-0.141-0.582-0.345c3.963-1.206,7.053-7.182,11.273-7.182
		c1.327,0.013-3.859,4.221-3.951,4.425c0.99-0.62,1.988-0.678,3.006-0.175c-0.502,0.108-0.794,0.408-0.877,0.915
		c0.574,0.004,1.144,0.012,1.713,0.021c-0.024,0.063-0.149,0.328-0.149,0.328c0.424-0.087,0.853-0.17,1.276-0.258
		c0.974,0.208,2.229,0.225,2.795,0.029c-0.245,0.607-0.599,1.214-1.015,2.25C195.713,116.111,196.246,116.041,196.625,116.053z
		 M184.224,112.868c-1.726,1.251-4.171-0.545-5.473-1.551C181.725,110.884,182.752,112.082,184.224,112.868z M184.407,110.193
		C186.211,110.459,182.852,111.424,184.407,110.193L184.407,110.193z M179.724,119.692c-1.093,2.279-5.177-0.067-4.807-0.715
		c0.108-0.212,0.399-0.416,0.619-0.482C176.584,119.841,177.982,120.241,179.724,119.692z M205.291,349.629
		c-2.117,8.339-3.385,11.356-10.663,15.957c-2.013,1.272-5.759,5.247-5.261,8.009c0.699,2.395,1.447,4.773,2.254,7.136
		c-1.36,1.573-2.012,3.402-1.975,5.489c-0.008-0.032-0.025-0.066-0.037-0.104c-0.728,5.385-2.729,10.126-3.76,15.561
		c-0.69,3.647-11.906,5.361-12.363,4.176c2.146,5.564,10.072,3.219,6.338,11.627c-1.335,2.986-5.926,3.598-8.65,4.271
		c-3.202,0.79,0.187,4.458,0.104,6.23c1.485,3.468-3.717,1.821-5.83,2.387c-3.934,1.073,5.959,5.563,5.314,4.175
		c0.982,2.184-2.354,1.061-3.073,1.256c0.94,2.059,4.009,7.111,0.167,8.916c-6.342,3.868,6.154,5.973,5.527,9.199
		c-8.168-3.293-23.355-7.594-27.193-15.586c-0.881,0.017-1.401,0.506-1.543,1.477c-4.337-2.533-2.088-5.096-3.439-7.984
		c-1.376-2.982-3.729-3.424-3.747-7.598c-0.033-8.135-0.565-13.188-3.838-21.234c-3.535-4.633-3.011-14.779-3.926-20.585
		c-1.942-5.489-2.745-11.09-5.041-16.464c-2.532-5.896-9.602-9.855-15.918-10.72c-8.105-1.418-9.365-8.376-14.31-13.719
		c-4.158-4.483-8.379-9.573-11.681-14.431c-1.688-2.304-4.982-2.463-5.947-6.254c-0.907-3.585,2.557-5.074,2.491-8.238
		c-4.803-2.608-3.385-3.299-3.264-8.546c0.104-4.504,6.238-9.364,6.163-13.956c-1.256-0.396-1.613-1.09-1.094-2.088
		c-0.936-4.362-6.574-11.678-0.936-13.992c-1.156-6.026,6.234-10.098,10.725-12.09c0.998-0.433,2.092-3.605,3.406-1.76
		c0.682,0.719,0.553,1.436-0.379,2.163c0.017,1.468-0.856,8.429,2.379,8.23c1.389-0.083-3.979-7.523,3.36-7.969
		c-0.678-1.359-2.138-0.703-2.392-2.079c2.595-0.101,5.798,2.188,7.332,3.942c1.127,1.289,5.872,0.657,7.481,1.238
		c2.27,0.82,6.6-2.128,9.614-2.128c-0.337,0.362-1.131,0.523-1.485,0.308c0.982,5.048,11.985,6.222,15,10.782
		c2.433,3.557,12.679,4.471,16.576,4.346c4.508-0.34,12.176,10.738,10.068,13.532c-3.207,4.25,1.359,9.54,5.452,9.066
		c4.042-0.383,0.333-7.694,8.229-4.392c2.982,1.251,4.076,1.122,4.899,4.545c3.692-0.361,8.404-1.751,12.713-0.536
		c4.299,1.206,6.877,3.941,11.411,4.864c9.714,2.084,0.428,19.991-1.855,24.315C200.991,333.636,205.981,344.743,205.291,349.629z
		 M242.809,74.227c-0.249,0.852,0.615,0.857-0.965,1.027c-0.249,0.811,4.712,0.738,5.868,0.946
		c-4.683,1.599-9.898,2.456-14.838,2.381c-3.214,0.915-5.103,3.015-8.771,2.919c0.046-0.183,0.096-0.362,0.15-0.541
		c-3.402,0.641-7.465,7.536-9.24,7.394c-1.177-0.1-9.531-3.913-6.471-5.548c-0.624-0.761-3.048-1.06-1.647-2.967
		c-0.216-0.1-0.445-0.125-0.682-0.017c0.545-1.77,3.447-2.146,4.562-3.474c-1.048-0.227-3.563-0.339-3.48-0.965
		c0.994-0.233,2.425,1.035,3.09-0.017c-0.329-0.07-2.736-1.442-3.61-1.38c1.019-0.508,1.078-0.893,0.08-1.132
		c1.476-3.815-6.542-3.815-8.663-3.233c0.059,0.052,0.15,0.121,0.225,0.135c-0.698,0.181-1.389,0.088-2.083-0.289
		c0.316-0.125,0.524-0.149,0.707-0.324c-0.632-0.268-1.293-0.338-1.972-0.208c0.82-1.237,3.539-0.013,4.508-1.123
		c-0.44,0.025-5.318,0.387-4.985-0.293c0.936-2.007,5.992-0.025,7.186-2.296c-0.715,0.136-1.397,0.071-2.058-0.195
		c1.172-2.302,12.25-2.753,13.856-2.861c0.429-0.769,1.638-0.561,2.495-0.241c-0.029-0.125-0.15-0.212-0.066-0.341
		c0.524-0.858,4.932,0.031,5.859-0.022c-0.678,0.033-1.273-0.14-1.813-0.521c0.545-0.208,1.103-0.301,1.685-0.291
		c-0.204-0.096-0.507-0.093-0.628-0.191c11.008-2.547,23.176-1.892,34.429-1.648c-0.794,0.671-2.08,1.094-3.598,1.357
		c1.231-0.139,2.142-0.201,2.063-0.077c-0.092,0.139-4.483,1.549-4.758,1.771c1.235-0.183,22.511-2.77,22.312-2.426
		c-0.65,1.036-5.166,1.339-7.541,1.443c-0.639,1.124-9.223,3.038-10.791,3.856c1.352-0.16,2.686-0.073,4.017,0.262
		c-0.341,0.08-0.794,0.163-1.156,0.177c0.807,0.094,1.576,0.331,2.295,0.705c-0.603,1.472-5.127-0.562-5.739,0.883
		c-0.129,0.314,2.686,0.148,2.237,1.355c-0.432,1.115-1.934,0.046-2.246,0.917c0.678,0.41,1.423,0.561,2.229,0.451
		c-0.516,0.416-1.805,0.676-2.953,0.744c-0.067,0.181,0.183,0.329,0.461,0.381c-1.506,1.73-4.237,0.449-5.913,0.486
		c0.952,0.262,1.862,0.638,2.731,1.123c-0.89,2.668-4.121-1.65-4.666,0.002c0.82,0.451,5.257,1.195,4.737,2.951
		C248.91,76.459,243.541,74.465,242.809,74.227z M452.624,269.415c-6.713,9.822-17.607,13.34-20.394,26.082
		c-0.737,3.369-3.755,5.225-3.785,8.875c-0.024,3.684,0.836,7.269,0.79,10.953c-0.053,3.826,5.257,7.91,3.619,11.412
		c-4.479,9.594,4.091,19.311-7.012,26.165c-3.885,2.403-8.94,4.603-9.761,9.681c-7.14,1.43-0.548,9.943-0.673,13.428
		c-0.275,8.06-1.885,6.4-6.891,10.584c-5.331,4.44-0.233,8.366-4.741,13.698c-4.159,4.911-6.407,10.903-10.23,16.105
		c-1.613,2.184-9.581,5.007-9.888,6.771c-4.296,0.444-7.897-0.587-12.064,1.617c-3.971,2.097-8.525-0.748-9.977,0.101
		c0.162-14.102-11.087-24.719-12.696-39.457c-0.739-6.794-0.927-9.398-4.055-15.586c-3.259-6.466-6.07-13.723-4.719-21.117
		c0.96-5.289,5.23-8.929,6.433-14.047c1.205-5.141-1.186-12.934-2.508-17.891c-1.422-5.306-1.816-11.859-5.269-16.227
		c-3.435-4.366-9.535-10.208-7.27-16.414c3.531-9.638,5.19-19.573-8.703-19.286c-4.292,0.087-3.863-8.401-8.813-8.271
		c-6.8,0.158-12.38,8.008-17.989,8.146c-2.37,0.055-4.268-2.084-6.691-2.026c-2.924,0.075-5.057,1.731-7.71,2.642
		c-5.763,1.988-10.047-3.743-13.66-7.381c-4.804-4.834-5.769-11.52-10.255-16.48c-2.538-2.791-4.983-5.686-6.983-8.887
		c0.113,0,0.216,0,0.324-0.008c0.083-3.984-2.424-7.652-0.499-10.688c1.979-3.103,3.352-7.387,3.48-11.071
		c0.183-5.206-3.48-12.825-0.761-17.624c2.071-3.656,3.48-7.245,5.228-11.091c2.161-4.729,4.229-10.67,9.456-12.596
		c2.891-1.064,6.305-3.942,7.262-6.978c1.039-3.223,0.294-6.944,2.365-9.806c2.973-4.15,6.574-7.785,9.64-11.855
		c-0.07,0.008-0.138,0.012-0.204,0.012c3.481-4.674,8.924,0.532,15.045-3.027c4.945-2.811,11.084-5.889,16.867-6.101
		c3.843-0.145,7.37-0.042,11.279-0.17c1.875-0.066,4.25-3.501,5.95-0.881c0.919,1.231,1.938,1.31,3.048,0.241
		c-0.24,3.385-1.646,6.288-1.672,10.072c-0.066,6.699,6.393,4.5,10.256,5.755c3.609,1.168,17.54,16.372,17.32,4.674
		c-0.205-10.08,14.662-1.406,18.368-0.075c5.219,1.871,9.273,2.528,14.5,0.603c3.863-1.426,7.398,1.119,11.44,0.013
		c2.379,5.947,2.18,7.536,0.766,13.682c-2.313-0.366-4.476-6.126-6.434-8.238c0.324,6.325,6.367,13.91,9.282,19.537
		c1.966,3.797,2.457,7.643,4.599,11.307c2.463,4.212,1.352,10.138,4.408,13.574c3.285,3.68,4.504,5.438,5.584,10.454
		c1.436,6.628,12.136,10.92,13.562,17.154c2.059,8.962,4.887,6.824,12.31,5.477c4.195-0.906,8.104-3.077,12.026-4.399
		C469.86,240.854,458.429,260.925,452.624,269.415z"></path></g></svg>